<svg height="512" viewBox="0 0 512 512" width="512" xmlns="http://www.w3.org/2000/svg"><g id="Flat"><path d="m264.129 489.431-17.371-96.569 15.742-2.862 17.371 96.569z" fill="#f79d16"/><path d="m240 480h80v16h-80z" fill="#f79d16"/><path d="m264 456a16 16 0 1 1 16-16 16.019 16.019 0 0 1 -16 16z" fill="#f79d16"/><g fill="#ffb531"><path d="m216.129 489.431-17.371-96.569 15.742-2.862 17.371 96.569z"/><path d="m192 480h80v16h-80z"/><path d="m216 456a16 16 0 1 1 16-16 16.019 16.019 0 0 1 -16 16z"/><path d="m432 144v-48l56 24z"/></g><path d="m432 91.27v124.73a184 184 0 0 1 -184 184h-166l67.07-101.76 106.93-162.24 52.14-81.11a67.274 67.274 0 0 1 123.86 36.38z" fill="#4db7e5"/><path d="m432 173.36v42.64a184 184 0 0 1 -184 184h-166l67.07-101.76h30.32a316.854 316.854 0 0 0 224.78-93.11 319.582 319.582 0 0 0 27.83-31.77z" fill="#48add9"/><circle cx="368" cy="88" fill="#313b4c" r="16"/><path d="m113.636 352-31.636 48-58 88h56l58.667-88 32-48z" fill="#2d7dbf"/><path d="m376 136a215.02 215.02 0 0 1 -22.46 96q-4.08 8.2-8.81 16-5.025 8.25-10.74 16-6.12 8.31-13.01 16a212.14 212.14 0 0 1 -15.88 16 217.077 217.077 0 0 1 -19.86 16 215.012 215.012 0 0 1 -125.24 40h-46.36l26.36-40 10.55-16 10.54-16 10.55-16 10.54-16 10.55-16 63.27-96z" fill="#348fd9"/><path d="m305.1 296a217.077 217.077 0 0 1 -19.86 16h-145.24l10.55-16z" fill="#2a71ad"/><path d="m333.99 264q-6.12 8.31-13.01 16h-159.89l10.55-16z" fill="#2a71ad"/><path d="m353.54 232q-4.08 8.2-8.81 16h-162.55l10.55-16z" fill="#2a71ad"/></g></svg>