<svg height="512" viewBox="0 0 512 512" width="512" xmlns="http://www.w3.org/2000/svg"><g id="Flat"><path d="m389.916 313.985-21.916 126.015h-32l16-104-25.6-64h65.6z" fill="#e66000"/><path d="m285.333 272 18.667 56v112h-32v-104l-32-40v-24z" fill="#e66000"/><path d="m451.44 263.6-19.44 32.4 24 48-24 96h-32l16-88-26.05-36.47a74.811 74.811 0 0 1 -13.95-43.53h-136v168h-32v-112l-32-72h-24a79.937 79.937 0 0 1 -80-80v-48h-48v-24a16 16 0 0 1 16-16h8l24-16h24a24.006 24.006 0 0 1 24 24v67.3a36.7 36.7 0 0 0 71.85 10.55l.28-.94a74.241 74.241 0 0 1 71.11-52.91h.76l27.2-32.64a42.7 42.7 0 0 1 65.6 0l24.37 29.25 2.83 3.39a74.222 74.222 0 0 1 71.38 53.85l.62 2.15v71.14a32.015 32.015 0 0 1 -4.56 16.46z" fill="#f98500"/><path d="m451.44 263.6-19.44 32.4 24 48-24 96h-32l16-88-26.05-36.47a74.811 74.811 0 0 1 -13.95-43.53h-136v168h-32v-112l-32-72h-24a79.772 79.772 0 0 1 -24.07-3.69c87.08-25.48 178.74-67.29 253.24-135.7l2.83 3.39a74.222 74.222 0 0 1 71.38 53.85l.62 2.15v71.14a32.015 32.015 0 0 1 -4.56 16.46z" fill="#f77c00"/><path d="m496 344h-16v-144a8.009 8.009 0 0 0 -8-8h-16v-16h16a24.028 24.028 0 0 1 24 24z" fill="#e67007"/><g fill="#e66000"><rect height="48" rx="8" width="16" x="368" y="224"/><rect height="48" rx="8" width="16" x="232" y="224"/></g></g></svg>