<svg id="Flat" height="512" viewBox="0 0 64 64" width="512" xmlns="http://www.w3.org/2000/svg"><path d="m38 57h-3.586l-3.707-3.707a1 1 0 0 0 -1.414 1.414l4 4a1 1 0 0 0 .707.293h3v1a1 1 0 0 0 2 0v-2a1 1 0 0 0 -1-1z" fill="#4891d3"/><path d="m28 57h-3.219l-.811-3.243a1 1 0 1 0 -1.94.486l1 4a1 1 0 0 0 .97.757h3v1a1 1 0 0 0 2 0v-2a1 1 0 0 0 -1-1z" fill="#4891d3"/><path d="m28 55 2-10h4l-1.216 6.078a4.879 4.879 0 0 1 -4.784 3.922z" fill="#57b7eb"/><path d="m21 55 2-10h4l-1.216 6.078a4.879 4.879 0 0 1 -4.784 3.922z" fill="#57b7eb"/><path d="m29.724 52.381a5.476 5.476 0 0 1 3.621-4.1l.655-3.281h-4l-2 10a4.822 4.822 0 0 0 1.235-.177z" fill="#4891d3"/><path d="m22.591 53.044a5.48 5.48 0 0 1 3.621-4.1l.788-3.944h-4l-2 10a4.822 4.822 0 0 0 1.235-.177z" fill="#4891d3"/><path d="m40.482 46.351-28.482 2.649 37.854-38.735a3 3 0 0 1 5.146 2.097v18.057a16 16 0 0 1 -14.518 15.932z" fill="#aae1f9"/><path d="m37.02 23.4-25.02 25.6 28.482-2.649a15.984 15.984 0 0 0 12.034-7.375 15.98 15.98 0 0 1 -15.496-15.576z" fill="#57b7eb"/><path d="m17.729 48.467a7.914 7.914 0 0 1 4.69-1.9 7.915 7.915 0 0 0 5.134-2.306l7.064-7.061a7.994 7.994 0 0 0 -.019-11.32l-22.598 23.12z" fill="#4891d3"/><circle cx="46" cy="12" fill="#aae1f9" r="9"/><circle cx="46" cy="9" fill="#57b7eb" r="2"/><path d="m32 8h6a2 2 0 0 1 2 2v2a0 0 0 0 1 0 0h-12a0 0 0 0 1 0 0 4 4 0 0 1 4-4z" fill="#57b7eb"/><path d="m32 12h8a0 0 0 0 1 0 0v2a2 2 0 0 1 -2 2h-2a4 4 0 0 1 -4-4 0 0 0 0 1 0 0z" fill="#4891d3"/><path d="m31.284 38.607-23.334.707 16.97-16.971a8 8 0 0 1 11.314 0 8 8 0 0 1 0 11.314z" fill="#57b7eb"/><path d="m36.27 22.383a7.97 7.97 0 0 1 -1.036 1.274 17.656 17.656 0 0 1 -11.947 5.162l-4.993.151-10.344 10.344 23.334-.707 4.95-4.95a8 8 0 0 0 .036-11.274z" fill="#4891d3"/><path d="m15.021 43.556 12.021-.707 9.192-9.192-2.828-2.829a4 4 0 0 0 -5.657 0z" fill="#aae1f9"/><path d="m21.927 43.15 5.115-.3 9.192-9.192a3.4 3.4 0 0 0 -4.814 0z" fill="#57b7eb"/><path d="m24.176 43.018a7.992 7.992 0 0 0 .788-9.405l-9.943 9.943z" fill="#4891d3"/><path d="m16.435 47.8-12.728 1.413 19.093-19.092a8 8 0 0 1 0 11.314z" fill="#57b7eb"/><path d="m10.778 53.456-7.778 2.121 20.506-20.506a4 4 0 0 1 0 5.657z" fill="#aae1f9"/><path d="m52.9 17.778a8.989 8.989 0 0 1 -11.987 1.641l-3.173 3.243a10.989 10.989 0 0 0 15.16-4.884z" fill="#57b7eb"/><path d="m47 10a1.992 1.992 0 0 1 -1.82-2.82 2 2 0 1 0 2.64 2.64 1.99 1.99 0 0 1 -.82.18z" fill="#4891d3"/></svg>