<svg height="512" viewBox="0 0 512 512" width="512" xmlns="http://www.w3.org/2000/svg"><g id="Flat"><path d="m344 46.7a27.058 27.058 0 0 1 -12.486 22.817 67.044 67.044 0 0 0 -7.936-4.674 49.617 49.617 0 0 1 -27.578-44.62v-4.223h-16v4.223a65.808 65.808 0 0 0 9.2 33.689 34.14 34.14 0 0 1 -15.316-9.391c-6.466-7.021-9.884-16.883-9.884-28.521h-16c0 15.724 4.881 29.334 14.115 39.361 10.026 10.885 24.51 16.639 41.885 16.639h1.112a66.751 66.751 0 0 0 11.31 7.155 49.617 49.617 0 0 1 27.578 44.622v4.223h16v-4.223a65.571 65.571 0 0 0 -16.224-43.371 43.041 43.041 0 0 0 16.224-33.706v-14.7h-16z" fill="#c7c7c5"/><g fill="#7a432a"><path d="m232 328v64l-32 96h32l40-88v-72z"/><path d="m160 328-24 64 32 96h-32l-44.308-96 4.308-64z"/><path d="m421.665 112c-11.543 0-24.01 6.2-29.665 16v24l32-.5a32 32 0 0 0 24.046-19.612l7.954-19.888z"/><path d="m56 208a32 32 0 0 0 -32 32v40a47.25 47.25 0 0 0 32-12.479l24-59.521z"/></g><path d="m434.9 185.53a20.205 20.205 0 0 1 -24.17 19.82l-26.73-5.35-64 128-16 160h-32v-160h-112l-88 80v80h-32v-96l48-64a42.269 42.269 0 0 1 -32-40.98v-39.02a48 48 0 0 1 48-48h184l42.67-48h-5a32.01 32.01 0 0 1 -29.72-20.12l-7.95-19.88h34.33a31.968 31.968 0 0 1 27.68 16h41.99l10.67 12.45 27.37 31.93a20.2 20.2 0 0 1 4.86 13.15z" fill="#92563a"/><path d="m434.9 185.53a20.205 20.205 0 0 1 -24.17 19.82l-26.73-5.35-64 128-16 160h-32v-160h-112l-88 80v80h-32v-96l48-64a42.094 42.094 0 0 1 -8.38-3.07c116.08-26.98 244.09-80.17 323.05-184.48l27.37 31.93a20.2 20.2 0 0 1 4.86 13.15z" fill="#8c5338"/><rect fill="#6e3d26" height="48" rx="8" width="16" x="264" y="280"/><rect fill="#6e3d26" height="48" rx="8" width="16" x="152" y="280"/><path d="m472 16c0 11.638-3.418 21.5-9.885 28.521a34.14 34.14 0 0 1 -15.315 9.391 65.808 65.808 0 0 0 9.2-33.689v-4.223h-16v4.223a49.617 49.617 0 0 1 -27.578 44.622 67.044 67.044 0 0 0 -7.936 4.674 27.058 27.058 0 0 1 -12.486-22.819v-14.7h-16v14.7a43.041 43.041 0 0 0 16.224 33.7 65.571 65.571 0 0 0 -16.224 43.377v4.223h16v-4.223a49.617 49.617 0 0 1 27.578-44.622 66.751 66.751 0 0 0 11.31-7.155h1.112c17.375 0 31.859-5.754 41.885-16.639 9.234-10.027 14.115-23.637 14.115-39.361z" fill="#c7c7c5"/><path d="m368 152h16v16h-16z" fill="#6e3d26"/></g></svg>