<svg id="Capa_1" enable-background="new 0 0 512 512" height="512" viewBox="0 0 512 512" width="512" xmlns="http://www.w3.org/2000/svg"><path d="m511.582 256.68c-4.18-62.7-97.583-110.479-144.217-130.517-4.906-29.171-17.51-64.589-49.536-73.354-32.082-8.78-59.006 10.83-76.339 29.516h-.001s.003.002.003.002-9.514 68.53-30.353 72.28-19.236-31-19.236-31-13.358 35.8-31.525 30.456c-18.167-5.343-1.603-33.128-1.603-33.128s-17.163 12.873-31.714 17.8-22.335 26.77-14.4 72.937 10.099 95.942-20.92 101.713c-23.392 4.352-38.17-13.45-45.878-35.152-7.405-20.849-37.045-21.606-44.567-.799-.157.433-.323.87-.448 1.326-6.614 24.186 25.292 113.13 100.27 108.927 18.265-1.024 33.043-6.508 44.938-14.155 9.437-26.014 12.046-55.442 12.765-69.452.515-10.036 5.771-19.369 14.372-24.565 4.736-2.861 10.765-4.699 18.234-3.864 21.632 2.419 21.611 23.695 21.611 23.695s2.647 38.196-13.302 78.191l5.488 45.708c2.092 17.422 16.872 30.533 34.419 30.533 17.307 0 31.962-12.765 34.338-29.908l7.736-55.83h120.343l2.871 52.949c.997 18.389 16.199 32.789 34.615 32.789h2.496c14.212 0 26.984-8.666 32.221-21.878 14.684-37.043 41.397-114.049 37.319-175.22z" fill="#ffaa5c"/><g fill="#ff9838"><path d="m45.863 278.233c-5.16-14.527-21.11-19.287-32.856-13.806 5.492 2.503 10.165 7.113 12.542 13.806 7.708 21.702 22.486 39.504 45.878 35.152 1.216-.226 2.375-.528 3.491-.886-13.907-4.495-23.392-18.322-29.055-34.266z"/><path d="m152.88 279.514c-8.601 5.196-13.857 14.529-14.372 24.565-.624 12.159-8.302 52.696-16.489 80.202 9.083-2.534 17.061-6.265 24.037-10.751 9.437-26.014 12.046-55.442 12.765-69.452.515-10.036 5.771-19.369 14.372-24.565 1.442-.871 3.007-1.646 4.693-2.281-1.984-.743-4.223-1.298-6.773-1.583-7.467-.834-13.496 1.004-18.233 3.865z"/><path d="m258.615 388.161-4.948 35.708c-1.892 13.653-11.576 24.521-24.181 28.384 4.577 1.402 9.536 1.897 14.664 1.232 15.625-2.026 27.76-14.664 29.922-30.271l7.645-55.175c-11.644 0-21.504 8.588-23.102 20.122z"/><path d="m511.582 256.68c-4.18-62.7-97.583-110.479-144.217-130.517 0-.001 0-.002 0-.002v.001c-4.907-29.171-17.51-64.588-49.536-73.353-8.804-2.409-17.216-2.671-25.152-1.41 2.166.345 4.355.804 6.571 1.41 56.706 15.519 52.528 114.606 52.528 114.606s4.178 99.087-52.528 114.606c-2.835.776-5.628 1.343-8.38 1.737 8.462 1.205 17.484.857 26.961-1.737 56.706-15.52 52.528-114.606 52.528-114.606s.567-13.521-1.571-31.35c49.087 23.673 118.882 66.607 122.483 120.615 4.078 61.171-22.634 138.177-37.319 175.219-4.115 10.38-12.888 17.932-23.349 20.702 2.858.762 5.854 1.176 8.945 1.176h2.496c14.212 0 26.984-8.666 32.221-21.878 14.684-37.042 41.397-114.048 37.319-175.219z"/></g><path d="m213.04 299.345s6.724 96.816-65.603 143.57c-49.741 32.154-120.781 15.635-116.393.111 5.334-18.874 61.91-7.24 90.984-31.555 29.844-24.959 35.662-85.317 36.795-107.392.515-10.036 5.771-19.369 14.372-24.565 4.736-2.861 10.766-4.699 18.234-3.864 21.631 2.419 21.611 23.695 21.611 23.695z" fill="#ffeca1"/><path d="m213.04 299.345s.02-21.276-21.611-23.695c-1.108-.124-2.18-.182-3.225-.194 6.258 7.003 6.256 16.314 6.256 16.314s6.724 96.816-65.603 143.571c-30.766 19.888-69.672 21.152-93.847 15.551 15.519 11.908 71.265 18.632 112.427-7.977 72.327-46.755 65.603-143.57 65.603-143.57z" fill="#ffdf85"/><path d="m241.491 82.327s-22.873-12.427-76.305 0-66.256 46.623-54.501 56.241 48.089-17.632 48.089-17.632-16.564 27.785 1.603 33.128 31.525-30.456 31.525-30.456-1.603 34.75 19.236 31c20.839-3.751 30.353-72.281 30.353-72.281z" fill="#994e37"/><path d="m222.865 77.609c-3.082 18.781-11.166 60.415-23.953 73.27 2.814 3.018 6.736 4.716 12.226 3.728 20.839-3.75 30.353-72.28 30.353-72.28s-5.884-3.187-18.626-4.718z" fill="#844131"/><path d="m185.751 199.334c-6.444 0-11.046 5.328-12.648 11.16-1.738 6.324-.668 14.062 3.992 18.933 4.134 4.322 10.736 5.109 15.601 1.511 5.389-3.986 7.169-11.505 6.242-17.865-.987-6.768-5.697-13.739-13.187-13.739z" fill="#5a5a5a"/></svg>