<svg id="Capa_1" enable-background="new 0 0 512 512" height="512" viewBox="0 0 512 512" width="512" xmlns="http://www.w3.org/2000/svg"><path d="m499.258 319.196c-40.131 34.732-134.052 48.442-129.521-35.807 5.281-98.21-67.48-134.891-110.315-137.258s-64.546-20.115-59.851-68.629c4.694-48.512-32.273-77.502-76.869-77.502-44.595 0-101.513 50.88-116.182 78.687-9.808 18.591-6.501 42.47-3.232 56.257 1.404 5.92 7.853 9.043 13.336 6.498l71.458-33.173-50.834 49.437c-4.326 4.207-4.306 11.265.146 15.336 5.769 5.275 14.556 10.494 24.819 7.156 18.416-5.99 52.278-18.568 52.278-18.568s-3.564 119.196 85.255 171.349c6.822 52.422 55.778 73.041 55.778 73.041 0 41.513-1.765 52.258-31.313 65.444-13.009 5.806-20.384 14.357-24.565 22.11-4.481 8.31 1.449 18.426 10.829 18.426h62.803c18.647 0 33.762-15.241 33.762-34.041v-63.148c14.047-12.21 33.84-49.245 33.84-49.245s32.415 45.439 105.417 29.927c45.47-9.662 60.593-44.154 65.534-68.776 1.463-7.281-6.982-12.359-12.573-7.521z" fill="#98db7c"/><path d="m284.876 437.018v72.921c12.934-4.769 22.166-17.287 22.166-31.98v-63.107c-12.242 0-22.166 9.924-22.166 22.166z" fill="#82d361"/><path d="m100.08 14.997c44.595 0 81.563 28.99 76.868 77.503-4.694 48.513 17.016 66.262 59.852 68.629 42.835 2.366 115.596 39.047 110.315 137.258-4.026 74.861 83.223 68.415 127.776 36.312-44.837 21.058-108.914 18.626-105.154-51.309 5.281-98.21-67.48-134.891-110.315-137.258s-64.546-20.115-59.851-68.629c4.694-48.513-32.273-77.503-76.869-77.503-22.827 0-48.881 13.333-70.847 30.078 16.051-9.047 32.869-15.081 48.225-15.081z" fill="#82d361"/><path d="m154.301 170.286s4.114 32.783-19.064 47.655c-26.847 17.226-64.166 20.079-57.948 69.298 5.946 47.071 42.81 41.551 39.15 8.329-3.868-35.109 19.536-31.949 43.732-42.791 24.196-10.843 37.639-19.653 38.983-42.016" fill="#98db7c"/><path d="m199.154 210.761c-7.865-7.098-20.22-5.313-25.794 3.696-7.235 11.694-18.813 19.422-32.872 25.722-24.196 10.843-47.6 7.683-43.732 42.791 1.644 14.923-4.89 24.251-13.123 25.739 12.27 22.451 35.763 13.7 32.807-13.141-3.868-35.109 19.536-31.949 43.732-42.791 24.195-10.843 37.637-19.653 38.982-42.016z" fill="#82d361"/><path d="m63.96 68.902c0 10.158 5.973 17.819 13.893 17.819s13.892-7.661 13.892-17.819-5.972-17.819-13.892-17.819-13.893 7.661-13.893 17.819z" fill="#5a5a5a"/><path d="m231.174 255.368c2.587-3.395 1.932-8.243-1.462-10.829-3.394-2.587-8.243-1.932-10.83 1.462-.388.509-9.605 12.677-18.483 30.726-8.05 16.367-13.125 31.928-15.208 46.506 4.549 3.441 9.377 6.702 14.529 9.728 2.403-38.809 30.984-76.973 31.454-77.593z" fill="#6acb44"/></svg>