<?xml version="1.0"?>
<svg xmlns="http://www.w3.org/2000/svg" viewBox="0 0 512 512" width="512" height="512"><g id="Filled_outline" data-name="Filled outline"><path d="M256,304l32,40,8,16-8.82,2.94A22.187,22.187,0,0,0,272,384h56V288H256Z" style="fill:#78462f"/><path d="M136,320l-32,40-1.69.84A25.9,25.9,0,0,0,88,384h40l48-56,25.33-8.44L200,288H136Z" style="fill:#78462f"/><path d="M488,354.71A29.292,29.292,0,0,1,458.71,384,34.723,34.723,0,0,1,424,349.29v-2.91c0-3.47.18-6.93.5-10.38.24-2.6.56-5.2.94-7.79a107.616,107.616,0,0,0,1.13-15.57q0-4.5-.38-8.95a107.706,107.706,0,0,0-8.11-32.93v-.01a107.57,107.57,0,0,0-39.45-47.66A6.838,6.838,0,0,0,368,228.78V296l16,16v72H328v-2.28a22.214,22.214,0,0,1,8-17.07,21.959,21.959,0,0,1,4.27-2.79L344,360V336l-8-4.57-32-18.29L288,304H240l16,40-24,40H192a25.9,25.9,0,0,1,14.31-23.16L208,360l8-16-14.67-24.44L192,304H168l-13.33-3.33L136,296,40,328,24,312l24-24V264l16-32,24-8v-8a15.99,15.99,0,0,1,31.77-2.59l.02-.01L160,200a192.664,192.664,0,0,1,193.57-29.77L368,176l6.04,2.82,2.76,1.29a192.626,192.626,0,0,1,79.02,68,1.629,1.629,0,0,1,.11.17c.65.97,1.29,1.95,1.91,2.93A192.623,192.623,0,0,1,487.09,336Q487.99,345.27,488,354.71Z" style="fill:#92563a"/><path d="M488,354.71A29.292,29.292,0,0,1,458.71,384,34.723,34.723,0,0,1,424,349.29v-2.91c0-3.47.18-6.93.5-10.38.24-2.6.56-5.2.94-7.79a107.616,107.616,0,0,0,1.13-15.57q0-4.5-.38-8.95a107.706,107.706,0,0,0-8.11-32.93v-.01a107.57,107.57,0,0,0-39.45-47.66A6.838,6.838,0,0,0,368,228.78V296l16,16v72H328v-2.28a22.214,22.214,0,0,1,8-17.07,21.959,21.959,0,0,1,4.27-2.79L344,360V336l-8-4.57-32-18.29L288,304H240l16,40-24,40H192a25.9,25.9,0,0,1,14.31-23.16L208,360l8-16-14.67-24.44L192,304H168l-13.33-3.33c75.89-21.81,156.44-58.91,219.37-121.85l2.76,1.29a192.626,192.626,0,0,1,79.02,68,1.629,1.629,0,0,1,.11.17c.65.97,1.29,1.95,1.91,2.93A192.623,192.623,0,0,1,487.09,336Q487.99,345.27,488,354.71Z" style="fill:#8c5338"/><path d="M95.18,278.67A13.626,13.626,0,0,1,80,287.81l-32,.16V264l4.32-8.64,34.24,6.06A13.629,13.629,0,0,1,95.18,278.67Z" style="fill:#4f2816"/><path d="M487.09,336H424.5c.24-2.6.56-5.2.94-7.79a107.616,107.616,0,0,0,1.13-15.57q0-4.5-.38-8.95l52.7-7.53A192,192,0,0,1,487.09,336Z" style="fill:#4f2816"/><path d="M418.08,270.76v-.01a107.593,107.593,0,0,0-19.1-30.06l27.3-27.31a192.1,192.1,0,0,1,29.54,34.73,1.629,1.629,0,0,1,.11.17Z" style="fill:#4f2816"/><path d="M486.513,293.732A200.461,200.461,0,0,0,464.6,246.925c-.7-1.1-1.4-2.184-2.112-3.24a200.587,200.587,0,0,0-82.3-70.823l-8.8-4.11c-.137-.064-.276-.124-.416-.181L356.542,162.8a200.692,200.692,0,0,0-200.454,30.068l-31.659,10.551A23.993,23.993,0,0,0,80,216v2.234L61.47,224.41a8,8,0,0,0-4.625,4.012l-16,32A7.994,7.994,0,0,0,40,264v20.687L18.343,306.343a8,8,0,0,0,0,11.314l16,16a8,8,0,0,0,8.187,1.933L128,307.1v10.093L98.857,353.622l-.128.065A33.717,33.717,0,0,0,80,384a8,8,0,0,0,8,8h40a8,8,0,0,0,6.074-2.794l46.558-54.317,17.144-5.713,9.1,15.175-4.846,9.693A33.711,33.711,0,0,0,184,384a8,8,0,0,0,8,8h40a8,8,0,0,0,6.86-3.884l24-40a8,8,0,0,0,.568-7.087L251.816,312h.339l29.069,36.336,3.5,6.992-.067.022A30.154,30.154,0,0,0,264,384a8,8,0,0,0,8,8H384a8,8,0,0,0,8-8V312a8,8,0,0,0-2.343-5.657L376,292.687V230.979a99.572,99.572,0,0,1,42.218,73.382c.234,2.773.352,5.558.352,8.279a99.882,99.882,0,0,1-.766,12.315A216.83,216.83,0,0,0,416,352a40.045,40.045,0,0,0,40,40h2.71a37.293,37.293,0,0,0,37.29-37.3c0-6.451-.319-13-.948-19.48A200.327,200.327,0,0,0,486.513,293.732Zm-52.832,33.2a115.91,115.91,0,0,0,.889-14.3c0-.682-.032-1.375-.044-2.062l38.661-5.523A184.557,184.557,0,0,1,478.05,328H433.555C433.6,327.644,433.636,327.3,433.681,326.937Zm34.445-37.322-34.987,5a115.467,115.467,0,0,0-5.189-20.453l25.282-15.169A184.564,184.564,0,0,1,468.126,289.615ZM56.81,264.268l27.649,4.9a5.642,5.642,0,0,1-3.144,10.753,9.593,9.593,0,0,0-1.362-.109L56,279.953V265.889ZM173.471,320.41a8,8,0,0,0-3.545,2.384L124.32,376H97.869a17.809,17.809,0,0,1,8-8l1.69-.84A8.01,8.01,0,0,0,110.247,365l32-40A8,8,0,0,0,144,320V306.246l22.06,5.515A7.977,7.977,0,0,0,168,312h19.469l1.873,3.122ZM289.71,370.529l8.82-2.94a8,8,0,0,0,4.625-11.167l-8-16a8,8,0,0,0-.908-1.42l-21.6-27h13.23L320,331.5V376H282.462A14.173,14.173,0,0,1,289.71,370.529Zm93.361-154.093A14.838,14.838,0,0,0,360,228.78V296a8,8,0,0,0,2.343,5.657L376,315.313V376H337.2a14.146,14.146,0,0,1,3.917-5.2,13.97,13.97,0,0,1,2.728-1.784l3.73-1.861A8,8,0,0,0,352,360V336a8,8,0,0,0-4.032-6.946L296,299.357V264H280v32H245.766l-6.177-18.53-15.178,5.06,8,24,.014,0c.05.149.089.3.147.446L247.1,343.287,227.471,376h-25.6a17.809,17.809,0,0,1,8-8l1.69-.84a8,8,0,0,0,3.594-3.586l8-16a8,8,0,0,0-.3-7.695l-24-40A8,8,0,0,0,192,296H168.985l-31.045-7.761a7.992,7.992,0,0,0-4.47.171L42.161,318.847,35.314,312l16.019-16.019,28.1-.164a22.029,22.029,0,0,0,2.875.189,21.646,21.646,0,0,0,6.774-42.18,7.9,7.9,0,0,0-1.133-.287l-23.68-4.2,5.4-10.8L80,235.1V240H96V216a8,8,0,0,1,16,0v24h16V219.1l34.529-11.507a7.98,7.98,0,0,0,2.537-1.4A184.69,184.69,0,0,1,350.6,177.659l14.22,5.686,8.6,4.014A184.635,184.635,0,0,1,414.785,213.9L399.24,229.447A115.919,115.919,0,0,0,383.071,216.436Zm26.895,24.912,16.564-16.564a184.663,184.663,0,0,1,17.807,20.884l-22.8,13.677A115.443,115.443,0,0,0,409.966,241.348Zm63.8,128.415A21.149,21.149,0,0,1,458.71,376H456a24.028,24.028,0,0,1-24-24q0-3.924.192-8h47.483c.207,3.579.325,7.159.325,10.7A21.157,21.157,0,0,1,473.764,369.763Z"/></g></svg>
