<svg width="50" height="50" viewBox="0 0 50 50" fill="none" xmlns="http://www.w3.org/2000/svg">
<g clip-path="url(#clip0)">
<path d="M8.143 10.804C7.473 11.682 7 11.842 7 11.099V9.751C7 7.818 5.433 6.251 3.5 6.251C1.567 6.251 0 7.818 0 9.751V21.751C0 23.684 1.567 25.251 3.5 25.251H15.5C17.433 25.251 19 23.684 19 21.751C19 19.818 17.433 18.251 15.5 18.251C15.5 18.251 14.921 18.251 14.206 18.251C13.491 18.251 13.29 17.434 13.896 16.511C16.648 12.324 21.366 9.71599 26.465 9.71599C34.755 9.71599 41.499 16.46 41.499 24.75C41.499 33.039 34.755 39.783 26.465 39.783C24.256 39.783 22.465 41.574 22.465 43.783C22.465 45.992 24.256 47.783 26.465 47.783C39.166 47.784 49.499 37.451 49.499 24.751C49.499 12.05 39.166 1.717 26.465 1.717C19.204 1.716 12.445 5.167 8.143 10.804Z" fill="#FF9800"/>
</g>
<defs>
<clipPath id="clip0">
<rect width="49.499" height="49.499" fill="white"/>
</clipPath>
</defs>
</svg>
