<svg id="Capa_1" enable-background="new 0 0 512 512" height="512" viewBox="0 0 512 512" width="512" xmlns="http://www.w3.org/2000/svg"><path d="m507.437 134.974c8.316-25.683 5.254-51.658-9.099-77.204-33.6-59.801-124.708-51.48-128.57-51.096-8.383.832-14.496 8.295-13.677 16.679.818 8.384 8.296 14.514 16.671 13.714.748-.073 75.143-6.706 98.95 35.663 10.15 18.065 12.333 35.348 6.669 52.836-6.164 19.039-21.791 38.669-46.458 58.388-3.251-.347-6.625-.525-10.128-.525h-197.495l-36.842-71.958c7.335-5.98 12.022-15.085 12.022-25.286 0-18.011-14.601-32.613-32.613-32.613-16.815 0-30.653 12.727-32.418 29.073-10.907-.287-47.314-.513-59.462 8.719-14.355 10.91-12.058 51.102-55.696 59.715s-5.168 94.741 35.599 99.334c40.767 4.594 80.386-5.742 80.386-5.742s30.432 48.231 30.432 78.089v158.188c0 13.794 11.183 24.977 24.977 24.977 13.795 0 24.977-11.183 24.977-24.977v-99.55h206.132v99.55c0 13.794 11.183 24.977 24.977 24.977 13.795 0 24.977-11.183 24.977-24.977v-99.55s29.126-30.278 29.126-91.998c0-42.253-11.091-76.316-35.868-93.602 21.512-19.813 35.755-40.208 42.431-60.824z" fill="#ffaa5c"/><path d="m134.449 82.645c1.074-9.949 6.627-18.551 14.596-23.765-5.845-5.539-13.734-8.943-22.422-8.943-18.011 0-32.613 14.601-32.613 32.613 0 .762.036 1.515.087 2.264 15.057-2.52 33.195-2.358 40.352-2.169z" fill="#e8834d"/><path d="m78.359 251.583c-7.588.054-15.506-.272-23.468-1.169-2.485-.28-4.961-.868-7.411-1.718 1.082 16.952 9.431 62.823 43.325 74.065 33.655 11.163-14.009-24.869-12.446-71.178z" fill="#ffeca1"/><path d="m57.761 269.659c7.636.86 15.237 1.335 22.683 1.526-1.478-6.236-2.314-12.807-2.084-19.602-7.588.053-15.505-.272-23.468-1.17-2.485-.28-4.961-.868-7.411-1.717.301 4.718 1.168 11.68 2.99 19.509 2.417.681 4.85 1.179 7.29 1.454z" fill="#ffdf85"/><path d="m180.899 86.185c0 8.879-3.55 16.927-9.307 22.808-1.558 1.591-1.941 3.99-.926 5.972l26.586 51.925c5.198 10.152 15.643 16.539 27.049 16.539l-36.842-71.958c8.157-6.651 13.039-17.166 11.842-28.757-1.548-14.986-13.478-27.104-28.436-28.902-4.66-.56-9.147-.123-13.293 1.108 13.486 4.001 23.327 16.48 23.327 31.265z" fill="#ff9838"/><path d="m507.437 134.974c8.316-25.683 5.254-51.658-9.099-77.204-29.217-52-101.903-52.492-122.914-51.483 30.367 1.353 81.097 10.129 104.333 51.483 14.354 25.546 17.416 51.522 9.1 77.204-6.215 19.193-18.989 38.193-38.077 56.712-2.2 2.134-2.077 5.685.266 7.66 21.541 18.161 31.249 50.523 31.249 90.055 0 52.897-21.394 76.624-27.511 82.326-1.038.968-1.615 2.331-1.615 3.75v105.472c0 10.51-6.495 19.497-15.687 23.184 2.814 1.129 5.879 1.766 9.091 1.792 13.848.109 25.177-11.716 25.177-25.565v-98.962s29.126-30.278 29.126-91.998c0-42.253-11.091-76.316-35.868-93.602 21.509-19.813 35.753-40.208 42.429-60.824z" fill="#ff9838"/><path d="m197.082 480.949c0 10.51-6.495 19.497-15.687 23.184 2.873 1.152 6.006 1.793 9.29 1.793 13.794 0 24.977-11.183 24.977-24.977v-99.55c-10.262 0-18.581 8.319-18.581 18.581v80.969z" fill="#ff9838"/><path d="m84.756 146.629c-7.862 0-13.79 7.553-13.79 17.571 0 10.017 5.928 17.57 13.79 17.57s13.79-7.553 13.79-17.57c0-10.018-5.928-17.571-13.79-17.571z" fill="#844131"/><path d="m1.607 190.132c.165-.018.33-.035.495-.064 12.526-2.17 21.619-12.972 21.619-25.684 0-4.775-1.292-9.384-3.75-13.449-.228.047-.449.099-.679.144-17.997 3.552-22.02 20.29-17.685 39.053z" fill="#844131"/><path d="m421.794 381.399c-43.675-13.479-47.121-83.04-47.167-84.105-.165-4.264-3.778-7.616-8.021-7.421-4.264.165-7.587 3.757-7.421 8.021.032.835.879 20.701 8.288 42.619 5.851 17.309 14.209 31.064 24.702 40.886z" fill="#e8834d"/><path d="m272.911 381.399v-48.614c0-4.268-3.459-7.727-7.727-7.727s-7.727 3.459-7.727 7.727v48.614z" fill="#994e37"/><path d="m347.005 381.399v-48.614c0-4.268-3.459-7.727-7.727-7.727s-7.727 3.459-7.727 7.727v48.614z" fill="#994e37"/><path d="m215.663 456.007v-15.454h-22.327c-4.268 0-7.727 3.459-7.727 7.727s3.459 7.727 7.727 7.727z" fill="#994e37"/><path d="m197.082 440.552h18.581v15.454h-18.581z" fill="#844131"/><g fill="#994e37"><path d="m187.964 394.892h-22.255v15.454h22.255c4.268 0 7.727-3.459 7.727-7.727s-3.459-7.727-7.727-7.727z"/><path d="m442.455 440.552h-20.66v15.454h20.66c4.268 0 7.727-3.459 7.727-7.727 0-4.267-3.459-7.727-7.727-7.727z"/><path d="m471.749 398.249h-29.294c-4.268 0-7.727 3.459-7.727 7.727s3.459 7.727 7.727 7.727h29.294z"/><path d="m491.112 347.108c1.723-4.67 3.34-9.82 4.749-15.454h-46.691c-4.268 0-7.727 3.459-7.727 7.727s3.459 7.727 7.727 7.727z"/><path d="m496.65 248.282h-60.91c-4.268 0-7.727 3.459-7.727 7.727s3.459 7.727 7.727 7.727h63.612c-.672-5.354-1.57-10.513-2.702-15.454z"/><path d="m316.888 268.664c4.268 0 7.727-3.459 7.727-7.727v-77.508h-15.454v77.508c0 4.268 3.459 7.727 7.727 7.727z"/><path d="m256.011 243.819c4.268 0 7.727-3.459 7.727-7.727v-52.663h-15.454v52.663c0 4.267 3.459 7.727 7.727 7.727z"/><path d="m377.765 243.819c4.268 0 7.727-3.459 7.727-7.727v-52.663h-15.454v52.663c0 4.267 3.459 7.727 7.727 7.727z"/><path d="m102.827 131.212c4.268 0 7.727-3.459 7.727-7.727v-40.45c-5.118.317-10.434.826-15.454 1.62v38.829c0 4.269 3.459 7.728 7.727 7.728z"/><path d="m193.696 123.654-40.171 17.917c-3.898 1.739-5.649 6.308-3.91 10.204 1.283 2.876 4.104 4.582 7.061 4.582 1.051 0 2.121-.216 3.143-.672l40.93-18.255z"/></g><path d="m200.749 137.43-7.053-13.776-15.127 6.747 7.054 13.776z" fill="#844131"/><path d="m210.233 155.953-32.473 13.926c-3.922 1.681-5.738 6.225-4.056 10.147 1.256 2.929 4.107 4.684 7.105 4.684 1.015 0 2.048-.202 3.042-.628l33.441-14.341z" fill="#994e37"/><path d="m210.233 155.953-15.236 6.533 2.255 4.404c1.691 3.303 3.945 6.198 6.599 8.614l13.441-5.764z" fill="#844131"/><path d="m181.869 246.694-35.344 17.897c2.201 4.245 4.52 8.951 6.757 13.901l35.567-18.01c3.807-1.928 5.331-6.577 3.404-10.384-1.928-3.808-6.579-5.331-10.384-3.404z" fill="#994e37"/><path d="m204.088 314.916h-38.988c.391 2.717.608 5.346.608 7.845v7.609h38.38c4.268 0 7.727-3.459 7.727-7.727s-3.459-7.727-7.727-7.727z" fill="#994e37"/><path d="m448.138 169.743 21.899 21.264c3.801-3.719 7.347-7.458 10.636-11.213l-21.912-21.277c-3.204 3.732-6.749 7.475-10.623 11.226z" fill="#994e37"/><path d="m511.658 114.354-30.255-6.139c-.132 5.096-.937 10.182-2.41 15.281l30.014 6.089c1.326-5.068 2.208-10.148 2.651-15.231z" fill="#994e37"/><path d="m498.338 57.769c-.292-.52-.599-1.023-.9-1.533l-25.134 17.597c2.66 4.883 4.736 9.712 6.231 14.503l25.884-18.122c-1.732-4.157-3.756-8.307-6.081-12.445z" fill="#994e37"/><path d="m386.735 36.663c4.451.055 9.726.279 15.464.831l3.593-30.35c-5.599-.568-10.815-.862-15.446-.989z" fill="#994e37"/><path d="m434.025 44.066c4.869 1.677 9.645 3.719 14.157 6.203l11.8-28.265c-4.637-2.364-9.397-4.386-14.194-6.116z" fill="#994e37"/><path d="m453.169 398.249h18.581v15.454h-18.581z" fill="#844131"/><path d="m471.346 347.108h19.766c1.723-4.67 3.341-9.82 4.749-15.454h-18.965c-1.644 5.833-3.547 10.966-5.55 15.454z" fill="#844131"/><path d="m478.077 248.282c1.131 4.94 2.023 10.102 2.694 15.454h18.58c-.672-5.354-1.57-10.513-2.701-15.454z" fill="#844131"/><path d="m480.673 179.794-10.389-10.088c-2.998 4.008-6.28 8-9.855 11.972l9.608 9.329c3.801-3.719 7.347-7.457 10.636-11.213z" fill="#844131"/><path d="m493.329 110.636c-.229 5.123-.911 10.244-2.037 15.356l17.716 3.594c1.326-5.07 2.208-10.149 2.651-15.232z" fill="#844131"/><path d="m504.419 70.214c-1.732-4.157-3.756-8.307-6.081-12.445-.292-.52-.596-1.026-.897-1.536l-13.584 9.51c2.319 4.949 4.215 9.911 5.69 14.882z" fill="#844131"/><path d="m390.19 7.473c4.884.569 10.015 1.352 15.277 2.412l.325-2.742c-5.598-.568-10.816-.864-15.446-.99z" fill="#844131"/><path d="m459.981 22.005c-4.637-2.364-9.396-4.39-14.192-6.119l-2.886 6.913c4.584 2.425 9.03 5.195 13.26 8.352z" fill="#844131"/></svg>