<svg id="Twotone" height="512" viewBox="0 0 64 64" width="512" xmlns="http://www.w3.org/2000/svg"><g fill="#cff09e"><path d="m7.6 27.675.666.09a31.342 31.342 0 0 0 7.736.069l.532 2.794 3.866-4.228a10.783 10.783 0 0 0 -9.049-7.62l-.077-.01-.666-.09a2.961 2.961 0 0 1 -1.3-.5c-.177.2-.362.392-.525.6l-3.154 4.1a3 3 0 0 0 1.971 4.795z"/><path d="m7.7 35.343a2.142 2.142 0 0 0 1.031 4.151l4.181-.8a8.01 8.01 0 0 0 2.015-.67l4-2a8.01 8.01 0 0 1 -2.015.67l-4.181.8a2.142 2.142 0 0 1 -2.358-2.974z"/><path d="m17.078 17.7 2.443-.619.47-2.145c.036-.162.059-.325.083-.488l-1 .252a2.121 2.121 0 0 1 -2.526-1.367 7 7 0 0 1 .767-6.117l.126-.191-.011-.025-2.111 3.216a7 7 0 0 0 -.767 6.117 2.121 2.121 0 0 0 2.526 1.367z"/><path d="m27 58h-13a3 3 0 0 1 -3-3h-2.83a3.114 3.114 0 0 0 -3.17 2.839 3 3 0 0 0 3 3.161h22a3 3 0 0 0 -3-3z"/><path d="m61 3h-4a13.838 13.838 0 0 0 -6.118 17.54 21.148 21.148 0 0 1 1.618 6.736c.6 8.344-7.112 14.258-14.671 12.832l-.81-2.708c-.14-.468-.3-.926-.469-1.385l-3.4.632a10.6 10.6 0 0 1 -9.424-2.915l-6.036 2.946.924 4.857c.023-.028.05-.052.073-.08a11.908 11.908 0 0 0 -2.687 7.545v6h14.8-.007a15 15 0 0 1 -8.793-13.659v-2.71a11.92 11.92 0 0 1 14.992 2.443q.342.387.65.8l.03.044c.175.238.34.485.5.736.067.107.13.217.194.327q.14.237.267.482c.075.144.149.288.218.434a11.88 11.88 0 0 1 1.149 5.103v3c0 .176-.016.348-.026.522l8.964-7.47a21.169 21.169 0 0 0 5.944-24.512 13.838 13.838 0 0 1 6.118-17.54z"/></g><path d="m19.991 14.936-.1.453a6.486 6.486 0 0 1 2.865 1.885l.126-.138a7 7 0 0 0 1.825-4.877l-.075-3.277-3.432 1.73a6.917 6.917 0 0 0 -1.3.853 7 7 0 0 1 .091 3.371z" fill="#a8dba8"/><path d="m12.563 20.441a1 1 0 1 0 1.169.8 1 1 0 0 0 -1.169-.8z" fill="#3b8686"/><path d="m61.969 2.753a1 1 0 0 0 -.969-.753h-6.451a18.59 18.59 0 0 0 -17.743 24.133l.438 1.4a16.681 16.681 0 0 1 .362 8.478 30.041 30.041 0 0 0 -8.5-12.775l-.114-.1a12.841 12.841 0 0 1 -2.777-3.674 10.68 10.68 0 0 0 -1.9-2.553 7.96 7.96 0 0 0 1.39-4.672l-.075-3.277a1 1 0 0 0 -1.449-.87l-3.433 1.728c-.124.063-.241.14-.362.209a8.223 8.223 0 0 0 -.4-.746l-1.7-2.8a1 1 0 0 0 -.839-.481 1.017 1.017 0 0 0 -.853.451l-2.111 3.216a8.037 8.037 0 0 0 -1.29 4.674c-.1.034-.206.058-.309.1a11.223 11.223 0 0 0 -4.9 3.729l-3.154 4.1a4 4 0 0 0 2.638 6.405l.666.089a32.245 32.245 0 0 0 7.058.164l.267 1.4-.718.789a7.011 7.011 0 0 1 -3.113 1.974l-4.225 1.3a3.142 3.142 0 0 0 .92 6.144 3.2 3.2 0 0 0 .591-.055l4.182-.8a9.049 9.049 0 0 0 2.267-.755l1.586-.775.6 3.147a12.919 12.919 0 0 0 -2.549 7.703v5h-7a4 4 0 0 0 0 8h23a10.014 10.014 0 0 0 9.949-8.989l8.629-7.191a22.045 22.045 0 0 0 6.222-25.67 12.8 12.8 0 0 1 5.679-16.272 1 1 0 0 0 .49-1.125zm-40.322 8.852 2.023-1.019.039 1.7a5.961 5.961 0 0 1 -.948 3.341 10.836 10.836 0 0 0 -1.712-.949 7.971 7.971 0 0 0 -.033-2.7 5.934 5.934 0 0 1 .631-.373zm32.314 9.324a20.057 20.057 0 0 1 -5.661 23.355l-7.3 6.081v-1.365a1 1 0 0 0 -2 0v3a8.009 8.009 0 0 1 -8 8h-23a2 2 0 0 1 0-4h16a1 1 0 0 0 0-2h-7v-5a11.013 11.013 0 0 1 11-11 1 1 0 0 0 0-2 12.934 12.934 0 0 0 -8.768 3.43l-.417-2.188 5.833-2.85a1 1 0 1 0 -.877-1.8l-9.282 4.534a7.01 7.01 0 0 1 -1.764.587l-4.182.8a1.143 1.143 0 0 1 -1.249-.643 1.142 1.142 0 0 1 .7-1.57l4.226-1.3a9.008 9.008 0 0 0 4-2.538l5.266-5.776a1 1 0 0 0 -1.479-1.348l-2.863 3.141-.157-.829a1 1 0 0 0 -1.1-.807 30.263 30.263 0 0 1 -7.49-.067l-.666-.089a2 2 0 0 1 -1.319-3.2l3.154-4.1a9.262 9.262 0 0 1 3.945-3.044c.032.106.053.213.089.317l.64 1.84a1 1 0 0 0 1.892-.65l-.632-1.842a6.037 6.037 0 0 1 .657-5.243l1.243-1.893.882 1.449a5.97 5.97 0 0 1 .735 4.4l-.47 2.144a1 1 0 0 0 1.953.435l.132-.605a8.779 8.779 0 0 1 1.679 1.091 8.693 8.693 0 0 1 2.139 2.614 14.8 14.8 0 0 0 3.219 4.234l.113.1a28.055 28.055 0 0 1 8.279 12.951l1.981 6.6a1 1 0 0 0 .958.715 1.023 1.023 0 0 0 .287-.042 1 1 0 0 0 .671-1.245l-1.292-4.308.149-.4a18.679 18.679 0 0 0 .338-12.071l-.438-1.4a16.588 16.588 0 0 1 15.834-21.534h3.276a14.785 14.785 0 0 0 -3.864 16.929z" fill="#3b8686"/><path d="m52.472 7.763a1 1 0 0 0 -1.8-.877 18.824 18.824 0 0 0 -.4 15.6 16.08 16.08 0 0 1 -4.541 18.723 1 1 0 0 0 1.281 1.536 18.071 18.071 0 0 0 5.1-21.039 16.831 16.831 0 0 1 .36-13.943z" fill="#3b8686"/></svg>